<?xml version="1.0" encoding="UTF-8" standalone="no"?>
<!DOCTYPE svg PUBLIC "-//W3C//DTD SVG 1.1//EN"
 "http://www.w3.org/Graphics/SVG/1.1/DTD/svg11.dtd">
<!-- Generated by graphviz version 2.42.4 (0)
 -->
<!-- Title: master_clock Pages: 1 -->
<svg width="319pt" height="86pt"
 viewBox="0.00 0.00 318.78 85.70" xmlns="http://www.w3.org/2000/svg" xmlns:xlink="http://www.w3.org/1999/xlink">
<g id="graph0" class="graph" transform="scale(1 1) rotate(0) translate(4 81.7)">
<title>master_clock</title>
<polygon fill="white" stroke="transparent" points="-4,4 -4,-81.7 314.78,-81.7 314.78,4 -4,4"/>
<!-- 00 -->
<g id="node1" class="node">
<title>00</title>
<ellipse fill="none" stroke="black" cx="112.04" cy="-25.35" rx="25.2" ry="25.2"/>
<text text-anchor="middle" x="112.04" y="-21.65" font-family="Times,serif" font-size="14.00">0,0</text>
</g>
<!-- 10 -->
<g id="node3" class="node">
<title>10</title>
<ellipse fill="none" stroke="black" cx="198.74" cy="-52.35" rx="25.2" ry="25.2"/>
<text text-anchor="middle" x="198.74" y="-48.65" font-family="Times,serif" font-size="14.00">1,0</text>
</g>
<!-- 00&#45;&gt;10 -->
<g id="edge1" class="edge">
<title>00&#45;&gt;10</title>
<path fill="none" stroke="black" d="M136.64,-32.87C145.26,-35.62 155.19,-38.78 164.5,-41.75"/>
<polygon fill="black" stroke="black" points="163.68,-45.16 174.27,-44.87 165.81,-38.5 163.68,-45.16"/>
</g>
<!-- 01 -->
<g id="node2" class="node">
<title>01</title>
<ellipse fill="none" stroke="black" cx="285.43" cy="-25.35" rx="25.2" ry="25.2"/>
<text text-anchor="middle" x="285.43" y="-21.65" font-family="Times,serif" font-size="14.00">0,1</text>
</g>
<!-- 01&#45;&gt;00 -->
<g id="edge2" class="edge">
<title>01&#45;&gt;00</title>
<path fill="none" stroke="black" d="M260.12,-21.88C249.14,-20.48 235.99,-19.04 224.09,-18.35 201.59,-17.05 195.88,-17.05 173.39,-18.35 164.93,-18.84 155.84,-19.71 147.34,-20.67"/>
<polygon fill="black" stroke="black" points="146.87,-17.21 137.36,-21.88 147.71,-24.16 146.87,-17.21"/>
</g>
<!-- 10&#45;&gt;01 -->
<g id="edge3" class="edge">
<title>10&#45;&gt;01</title>
<path fill="none" stroke="black" d="M223.33,-44.83C231.96,-42.08 241.89,-38.91 251.2,-35.94"/>
<polygon fill="black" stroke="black" points="252.5,-39.2 260.97,-32.83 250.38,-32.53 252.5,-39.2"/>
</g>
<!-- 11 -->
<g id="node4" class="node">
<title>11</title>
<ellipse fill="none" stroke="black" cx="25.35" cy="-25.35" rx="25.2" ry="25.2"/>
<text text-anchor="middle" x="25.35" y="-21.65" font-family="Times,serif" font-size="14.00">1,1</text>
</g>
<!-- 11&#45;&gt;00 -->
<g id="edge4" class="edge">
<title>11&#45;&gt;00</title>
<path fill="none" stroke="black" d="M50.85,-25.35C58.83,-25.35 67.86,-25.35 76.45,-25.35"/>
<polygon fill="black" stroke="black" points="76.6,-28.85 86.6,-25.35 76.6,-21.85 76.6,-28.85"/>
</g>
</g>
</svg>
